<svg id="fs" xmlns="http://www.w3.org/2000/svg" width="46.175" height="25.893" viewBox="0 0 46.175 25.893">
  <g id="Group_6" data-name="Group 6">
    <path id="Path_24" data-name="Path 24" d="M17.109,152.591a3.857,3.857,0,1,0,3.854,3.86A3.855,3.855,0,0,0,17.109,152.591Zm0,5.787a1.927,1.927,0,1,1,1.927-1.927A1.929,1.929,0,0,1,17.109,158.378Zm29.066-8.638v4.115a1.859,1.859,0,0,1-1.859,1.859H42.328a5.1,5.1,0,0,0-10.093,0H22.154a5.1,5.1,0,0,0-10.087,0H9.576a1.859,1.859,0,0,1-1.859-1.859V149.74Zm-8.892,2.851a3.857,3.857,0,1,0,3.854,3.86A3.861,3.861,0,0,0,37.283,152.591Zm0,5.787a1.927,1.927,0,1,1,1.927-1.927A1.929,1.929,0,0,1,37.283,158.378Zm8.16-12.782-7.3-7.224a2.483,2.483,0,0,0-1.741-.719H32.711v-1.382a1.856,1.856,0,0,0-1.859-1.859H9.575a1.86,1.86,0,0,0-1.859,1.859v.291l-7.543.869,13.366,1.74L0,140.517l13.492,1.918L0,143.6l7.717,1.455v3.652H46.174v-1.357A2.49,2.49,0,0,0,45.443,145.6Zm-3.185.242H35.189a.291.291,0,0,1-.291-.291v-5.459a.291.291,0,0,1,.291-.291h1.345a.314.314,0,0,1,.2.081l5.719,5.459A.291.291,0,0,1,42.258,145.837Z" transform="translate(0 -134.412)"/>
  </g>
</svg>
