<svg id="m" xmlns="http://www.w3.org/2000/svg" width="31.188" height="25.375" viewBox="0 0 31.188 25.375">
  <g id="Group_3" data-name="Group 3">
    <g id="Group_2" data-name="Group 2" transform="translate(0 0)">
      <path id="Path_9" data-name="Path 9" d="M29.627,52.388H26.634l-.84-6.338A1.572,1.572,0,0,0,24.04,44.71L1.355,47.717a1.561,1.561,0,0,0-1.035.6,1.545,1.545,0,0,0-.306,1.153L1.928,63.907a1.557,1.557,0,0,0,1.749,1.345l1.5-.2v3.459a1.56,1.56,0,0,0,1.56,1.56H29.627a1.56,1.56,0,0,0,1.56-1.56V53.949A1.56,1.56,0,0,0,29.627,52.388Zm-4.042,0H21.523l3.992-.529ZM1.044,49.331a.51.51,0,0,1,.1-.381.52.52,0,0,1,.346-.2l22.681-3.005a.527.527,0,0,1,.588.447l.205,1.549L1.25,50.884ZM5.18,64l-1.636.216a.52.52,0,0,1-.584-.447h0L1.8,55l3.381-.447Zm.069-10.5-3.589.473-.273-2.058L25.105,48.77l.156,1.192.115.866-11.77,1.56H6.741A1.561,1.561,0,0,0,5.249,53.5Zm24.9,15.013a.52.52,0,0,1-.52.52H6.741a.52.52,0,0,1-.52-.52V53.964c0-.005,0-.01,0-.016a.52.52,0,0,1,.52-.52H29.627a.52.52,0,0,1,.52.52Z" transform="translate(0 -44.698)"/>
      <path id="Path_10" data-name="Path 10" d="M291.637,215.672a2.6,2.6,0,0,0,.548-.548,2.6,2.6,0,1,0,0-3.089,2.6,2.6,0,1,0-.548,3.637Zm2.629-3.653a1.56,1.56,0,1,1-1.56,1.56A1.56,1.56,0,0,1,294.266,212.019Zm-4.161,0a1.56,1.56,0,1,1-1.56,1.56A1.56,1.56,0,0,1,290.1,212.019Z" transform="translate(-268.799 -200.167)"/>
      <rect id="Rectangle_1" data-name="Rectangle 1" width="1.04" height="1.04" transform="translate(8.301 11.332)"/>
      <rect id="Rectangle_2" data-name="Rectangle 2" width="6.242" height="1.04" transform="translate(10.382 11.332)"/>
      <rect id="Rectangle_3" data-name="Rectangle 3" width="8.322" height="1.04" transform="translate(8.301 13.412)"/>
      <path id="Path_11" data-name="Path 11" d="M146.924,322.981H128.2a.52.52,0,0,0-.52.52v3.121a.52.52,0,0,0,.52.52h18.725a.52.52,0,0,0,.52-.52V323.5A.52.52,0,0,0,146.924,322.981Zm-.52,3.121H128.719v-2.081H146.4Z" transform="translate(-119.378 -304.888)"/>
    </g>
  </g>
</svg>
