<svg id="og" xmlns="http://www.w3.org/2000/svg" width="31.996" height="31.995" viewBox="0 0 31.996 31.995">
  <path id="Path_12" data-name="Path 12" d="M30.678,13.373l-.412-.308a1.379,1.379,0,0,1-.443-1.651l.2-.472A3.286,3.286,0,0,0,27.4,6.385l-.51-.061a1.379,1.379,0,0,1-1.209-1.209l-.061-.51a3.286,3.286,0,0,0-4.556-2.63l-.473.2a1.379,1.379,0,0,1-1.651-.443l-.308-.411a3.285,3.285,0,0,0-5.261,0l-.308.411a1.379,1.379,0,0,1-1.651.443l-.472-.2A3.286,3.286,0,0,0,6.379,4.6l-.061.51A1.379,1.379,0,0,1,5.109,6.324l-.51.061a3.286,3.286,0,0,0-2.63,4.556l.2.472a1.379,1.379,0,0,1-.443,1.651l-.411.308a3.286,3.286,0,0,0,0,5.261l.412.308a1.379,1.379,0,0,1,.443,1.651l-.2.472A3.286,3.286,0,0,0,4.6,25.622l.51.061a1.379,1.379,0,0,1,1.209,1.209l.061.51a3.286,3.286,0,0,0,4.556,2.63l.473-.2a1.379,1.379,0,0,1,1.651.443l.308.411a3.285,3.285,0,0,0,5.261,0l.308-.411a1.379,1.379,0,0,1,1.652-.442l.472.2a3.285,3.285,0,0,0,4.556-2.63l.061-.51a1.379,1.379,0,0,1,1.209-1.209l.51-.061a3.286,3.286,0,0,0,2.63-4.557l-.2-.472a1.379,1.379,0,0,1,.443-1.652l.411-.308a3.286,3.286,0,0,0,0-5.261Zm-.749,4.261-.411.308a2.625,2.625,0,0,0-.842,3.144l.2.472a2.036,2.036,0,0,1-1.63,2.823l-.51.061a2.625,2.625,0,0,0-2.3,2.3l-.061.51a2.036,2.036,0,0,1-2.823,1.63l-.472-.2a2.626,2.626,0,0,0-3.144.843l-.308.411a2.036,2.036,0,0,1-3.26,0l-.308-.411a2.625,2.625,0,0,0-3.144-.843l-.472.2a2.036,2.036,0,0,1-2.823-1.63l-.061-.51a2.625,2.625,0,0,0-2.3-2.3l-.51-.061a2.036,2.036,0,0,1-1.63-2.823l.2-.472a2.626,2.626,0,0,0-.842-3.144l-.412-.308a2.036,2.036,0,0,1,0-3.26l.411-.308a2.625,2.625,0,0,0,.842-3.144l-.2-.472a2.036,2.036,0,0,1,1.63-2.823l.51-.061a2.625,2.625,0,0,0,2.3-2.3l.061-.51a2.036,2.036,0,0,1,2.823-1.63l.472.2a2.626,2.626,0,0,0,3.144-.842l.308-.411a2.036,2.036,0,0,1,3.26,0l.308.412a2.625,2.625,0,0,0,3.144.842l.472-.2a2.036,2.036,0,0,1,2.823,1.63l.061.51a2.625,2.625,0,0,0,2.3,2.3l.51.061a2.036,2.036,0,0,1,1.63,2.823l-.2.472a2.625,2.625,0,0,0,.842,3.144l.411.308a2.036,2.036,0,0,1,0,3.26Z" transform="translate(0 -0.006)"/>
  <path id="Path_13" data-name="Path 13" d="M70.487,58.123a12.249,12.249,0,0,0-5.38,1.229.625.625,0,1,0,.544,1.125,11.011,11.011,0,0,1,4.836-1.1A11.116,11.116,0,1,1,59.371,70.489a11,11,0,0,1,2.361-6.851.625.625,0,1,0-.984-.771,12.244,12.244,0,0,0-2.627,7.622A12.366,12.366,0,1,0,70.487,58.123Z" transform="translate(-54.489 -54.491)"/>
  <path id="Path_14" data-name="Path 14" d="M100.648,201.5l-.476.607a.625.625,0,1,0,.983.771l.261-.333v4.133H101a.625.625,0,1,0,0,1.25h2.065a.625.625,0,1,0,0-1.25h-.4v-4.793a.625.625,0,0,0-.625-.625h-.9A.625.625,0,0,0,100.648,201.5Z" transform="translate(-93.787 -188.682)"/>
  <path id="Path_15" data-name="Path 15" d="M162.07,206.347h.325a1.874,1.874,0,0,0,1.872-1.872v-3.029a1.874,1.874,0,0,0-1.872-1.872h-.325a1.874,1.874,0,0,0-1.872,1.872v3.029A1.874,1.874,0,0,0,162.07,206.347Zm-.622-4.9a.623.623,0,0,1,.622-.622h.325a.623.623,0,0,1,.622.622v3.029a.623.623,0,0,1-.622.622h-.325a.623.623,0,0,1-.622-.622Z" transform="translate(-150.187 -187.104)"/>
  <path id="Path_16" data-name="Path 16" d="M237.788,206.347a1.874,1.874,0,0,0,1.872-1.872v-3.029a1.874,1.874,0,0,0-1.872-1.872h-.325a1.874,1.874,0,0,0-1.872,1.872v3.029a1.874,1.874,0,0,0,1.872,1.872Zm-.946-1.872v-3.029a.623.623,0,0,1,.622-.622h.325a.623.623,0,0,1,.622.622v3.029a.623.623,0,0,1-.622.622h-.325A.622.622,0,0,1,236.842,204.476Z" transform="translate(-220.87 -187.104)"/>
  <path id="Path_17" data-name="Path 17" d="M328.339,196.568a.625.625,0,0,0-.873.138l-3.971,5.46a.625.625,0,1,0,1.011.735l3.971-5.46A.625.625,0,0,0,328.339,196.568Z" transform="translate(-303.168 -184.173)"/>
  <path id="Path_18" data-name="Path 18" d="M156.548,109.869a.623.623,0,0,0,.411-.154,7.938,7.938,0,0,1,10.118-.264.625.625,0,0,0,.772-.983,9.188,9.188,0,0,0-11.712.3.625.625,0,0,0,.411,1.1Z" transform="translate(-146.178 -99.854)"/>
  <path id="Path_19" data-name="Path 19" d="M160.505,352.428a9.195,9.195,0,0,0,9.777.994.625.625,0,1,0-.559-1.118,7.945,7.945,0,0,1-8.446-.859.625.625,0,0,0-.772.983Z" transform="translate(-150.251 -329.359)"/>
  <path id="Path_20" data-name="Path 20" d="M337.031,347.91a.625.625,0,1,0-.106.816A.631.631,0,0,0,337.031,347.91Z" transform="translate(-314.897 -325.909)"/>
  <path id="Path_21" data-name="Path 21" d="M315.156,196.45a1.471,1.471,0,1,0,1.47,1.47A1.472,1.472,0,0,0,315.156,196.45Zm0,1.691a.221.221,0,1,1,.221-.221A.221.221,0,0,1,315.156,198.141Z" transform="translate(-294.082 -184.174)"/>
  <path id="Path_22" data-name="Path 22" d="M369.189,258.862a1.471,1.471,0,1,0,1.47-1.471A1.472,1.472,0,0,0,369.189,258.862Zm1.691,0a.221.221,0,1,1-.221-.221A.221.221,0,0,1,370.88,258.862Z" transform="translate(-346.118 -241.307)"/>
  <path id="Path_23" data-name="Path 23" d="M128.778,100.523a.625.625,0,1,0,.23-.758A.63.63,0,0,0,128.778,100.523Z" transform="translate(-120.687 -93.433)"/>
</svg>
