<svg id="r" xmlns="http://www.w3.org/2000/svg" width="38.893" height="38.375" viewBox="0 0 38.893 38.375">
  <path id="Path_1" data-name="Path 1" d="M9.418,29.058l12.244,5.651c.012.005.024,0,.035.008a.638.638,0,0,0,.533,0c.012,0,.024,0,.035-.008l12.244-5.651a.721.721,0,0,0,.418-.655V15.218a.726.726,0,0,0-.028-.192c-.007-.02-.015-.04-.024-.06a.688.688,0,0,0-.052-.115.737.737,0,0,0-.045-.061.643.643,0,0,0-.072-.087.606.606,0,0,0-.062-.052c-.016-.012-.03-.028-.047-.039s-.034-.015-.05-.024-.023-.017-.037-.024L22.269,8.913a.719.719,0,0,0-.6,0L9.421,14.564c-.014.006-.024.017-.037.024a.5.5,0,0,0-.05.024c-.016.01-.031.027-.047.039a.605.605,0,0,0-.062.052.643.643,0,0,0-.072.087.483.483,0,0,0-.1.176q-.013.029-.024.06A.7.7,0,0,0,9,15.218V28.4A.721.721,0,0,0,9.418,29.058Zm24.069-1.115-10.8,4.986v-11.6l6.1-2.815,4.705-2.175ZM21.964,10.361l10.525,4.857-8.677,4.005-1.847.853-1.847-.853-8.677-4.005Zm-4.5,9.233v4.244L16.047,22.5a.722.722,0,0,0-.6-.188l-1.224.19V18.1Zm-7.024-3.25,2.339,1.08v5.921a.72.72,0,0,0,.72.72.71.71,0,0,0,.11-.009l1.706-.265,2.377,2.24a.72.72,0,0,0,1.215-.524V20.25l2.336,1.08v11.6l-10.8-4.986Z" transform="translate(-2.517 -2.584)"/>
  <path id="Path_2" data-name="Path 2" d="M11.46,6.244a.689.689,0,0,0,.417-.137.716.716,0,1,0-.417.137Z" transform="translate(-3.004 -1.456)"/>
  <path id="Path_3" data-name="Path 3" d="M16.671,3.3a.661.661,0,0,0,.281-.058.706.706,0,0,0,.389-.919L17.333,2.3a.719.719,0,0,0-.941-.39h0A.72.72,0,0,0,16.671,3.3Z" transform="translate(-4.462 -0.63)"/>
  <path id="Path_4" data-name="Path 4" d="M22.418,1.627a.556.556,0,0,0,.115-.007.737.737,0,1,0-.115.007Z" transform="translate(-6.068 -0.152)"/>
  <path id="Path_5" data-name="Path 5" d="M10.562,39.114l-.973.48a.72.72,0,0,0,.32,1.368.734.734,0,0,0,.318-.072l2.32-1.144c.012-.006.019-.015.03-.022a.649.649,0,0,0,.115-.083.676.676,0,0,0,.064-.056,1.853,1.853,0,0,0,.125-.188c0-.007.008-.012.011-.019s.005-.037.012-.055a.62.62,0,0,0,.033-.283.822.822,0,0,0,0-.084L12.4,36.338a.72.72,0,0,0-1.418.254l.007.034.248,1.224a18.011,18.011,0,0,1-5.42-27.81.72.72,0,0,0,.1-.792.7.7,0,0,0-.858-.353.708.708,0,0,0-.108.03l-.012.009a.716.716,0,0,0-.212.164,19.445,19.445,0,0,0,5.834,30.016Z" transform="translate(0.001 -2.587)"/>
  <path id="Path_6" data-name="Path 6" d="M39.031,49.487a.714.714,0,1,0,.26-.987H39.3a.72.72,0,0,0-.269.982Z" transform="translate(-10.892 -13.653)"/>
  <path id="Path_7" data-name="Path 7" d="M33.948,50.8a.731.731,0,0,0-.489.9.72.72,0,0,0,.691.511.707.707,0,0,0,.209-.029.721.721,0,0,0-.411-1.383Z" transform="translate(-9.353 -14.313)"/>
  <path id="Path_8" data-name="Path 8" d="M36.041,2.277,36.573,4.9a.72.72,0,0,0,.705.576.746.746,0,0,0,.144-.014.72.72,0,0,0,.562-.85h0l-.248-1.224a18.01,18.01,0,0,1,4.089,29.183l-.01.006a.72.72,0,0,0-.184.753.705.705,0,0,0,.153.265.713.713,0,0,0,.526.228h0a.736.736,0,0,0,.112-.021.708.708,0,0,0,.378-.173A19.446,19.446,0,0,0,38.408,2.114l.973-.479a.72.72,0,0,0-.634-1.29l-2.32,1.143a.758.758,0,0,0-.144.1c-.014.012-.03.019-.042.031a.727.727,0,0,0-.144.216c0,.006-.008.009-.01.015s-.005.037-.012.055a.739.739,0,0,0-.037.186.729.729,0,0,0,0,.1A.558.558,0,0,0,36.041,2.277Z" transform="translate(-10.082 -0.191)"/>
</svg>
